<svg width="2439" height="915" viewBox="0 0 2439 915" fill="none" xmlns="http://www.w3.org/2000/svg">
<rect x="259.155" y="325" width="1920" height="590" fill="#F4F4F4"/>
<rect x="482" y="132" width="1475" height="585" fill="#F4F4F4"/>
<path d="M487.386 137.296C487.445 133.38 483.183 130.92 479.821 132.929L103.428 357.858C100.152 359.816 100.188 364.573 103.492 366.48L473.288 579.982C476.593 581.89 480.73 579.542 480.788 575.727L487.386 137.296Z" fill="#F5F5F5"/>
<path d="M1951.3 137.148C1951.24 133.232 1955.51 130.772 1958.87 132.781L2335.26 357.71C2338.54 359.668 2338.5 364.425 2335.2 366.332L1965.4 579.834C1962.1 581.742 1957.96 579.395 1957.9 575.579L1951.3 137.148Z" fill="#F5F5F5"/>
</svg>
