<svg width="2439" height="915" fill="none" xmlns="http://www.w3.org/2000/svg"><path fill="#F4F4F4" d="M259.155 325h1920v590h-1920z"/><path fill="#F4F4F4" d="M482 132h1475v585H482z"/><path d="M487.386 137.296c.059-3.916-4.203-6.376-7.565-4.367L103.428 357.858c-3.276 1.958-3.24 6.715.064 8.622l369.796 213.502c3.305 1.908 7.442-.44 7.5-4.255l6.598-438.431zm1463.914-.148c-.06-3.916 4.21-6.376 7.57-4.367l376.39 224.929c3.28 1.958 3.24 6.715-.06 8.622l-369.8 213.502c-3.3 1.908-7.44-.439-7.5-4.255l-6.6-438.431z" fill="#F5F5F5"/></svg>