<svg width="12" height="12" viewBox="0 0 12 12" fill="none" xmlns="http://www.w3.org/2000/svg">
<g clip-path="url(#clip0)">
<path d="M1.375 0C0.6155 0 0 0.6155 0 1.375V5.75H5.75V0H1.375ZM3.625 3.375H3.125V3.875C3.125 4.082 2.957 4.25 2.75 4.25C2.543 4.25 2.375 4.082 2.375 3.875V3.375H1.875C1.668 3.375 1.5 3.207 1.5 3C1.5 2.793 1.668 2.625 1.875 2.625H2.375V2.125C2.375 1.918 2.543 1.75 2.75 1.75C2.957 1.75 3.125 1.918 3.125 2.125V2.625H3.625C3.832 2.625 4 2.793 4 3C4 3.207 3.832 3.375 3.625 3.375Z" fill="white"/>
<path d="M0 6.24988V10.6249C0 11.3844 0.6155 11.9999 1.375 11.9999H5.75V6.24988H0ZM3.765 9.48487C3.9115 9.63137 3.9115 9.86887 3.765 10.0154C3.692 10.0884 3.596 10.1249 3.5 10.1249C3.404 10.1249 3.308 10.0884 3.235 10.0149L2.875 9.65487L2.515 10.0149C2.442 10.0879 2.346 10.1249 2.25 10.1249C2.154 10.1249 2.058 10.0884 1.985 10.0149C1.8385 9.86837 1.8385 9.63087 1.985 9.48437L2.345 9.12437L1.985 8.76437C1.8385 8.61787 1.8385 8.38038 1.985 8.23388C2.1315 8.08738 2.369 8.08738 2.5155 8.23388L2.8755 8.59387L3.2355 8.23388C3.382 8.08738 3.6195 8.08738 3.766 8.23388C3.9125 8.38038 3.9125 8.61787 3.766 8.76437L3.406 9.12437L3.765 9.48487Z" fill="white"/>
<path d="M10.625 0H6.25V5.75H12V1.375C12 0.6155 11.3845 0 10.625 0ZM10.375 3.25H8.125C7.918 3.25 7.75 3.082 7.75 2.875C7.75 2.668 7.918 2.5 8.125 2.5H10.375C10.582 2.5 10.75 2.668 10.75 2.875C10.75 3.082 10.582 3.25 10.375 3.25Z" fill="white"/>
<path d="M6.25 6.24988V11.9999H10.625C11.3845 11.9999 12 11.3844 12 10.6249V6.24988H6.25ZM10.25 10.2499H8C7.793 10.2499 7.625 10.0819 7.625 9.87487C7.625 9.66787 7.793 9.49987 8 9.49987H10.25C10.457 9.49987 10.625 9.66787 10.625 9.87487C10.625 10.0819 10.457 10.2499 10.25 10.2499ZM10.25 8.74987H8C7.793 8.74987 7.625 8.58187 7.625 8.37487C7.625 8.16788 7.793 7.99988 8 7.99988H10.25C10.457 7.99988 10.625 8.16788 10.625 8.37487C10.625 8.58187 10.457 8.74987 10.25 8.74987Z" fill="white"/>
</g>
<defs>
<clipPath id="clip0">
<rect width="12" height="12" fill="white"/>
</clipPath>
</defs>
</svg>
