<svg width="20" height="20" viewBox="0 0 20 20" fill="none" xmlns="http://www.w3.org/2000/svg">
<path d="M17.7246 1.875H2.27539C1.71006 1.875 1.25 2.34497 1.25 2.92249V13.3275C1.25 13.905 1.71006 14.375 2.27539 14.375H17.7246C18.2899 14.375 18.75 13.905 18.75 13.3275V2.92249C18.75 2.34497 18.2899 1.875 17.7246 1.875Z" fill="#74BCBC"/>
<path d="M16.25 17.2266H13.0859V15.5078H6.91406V17.2266H3.75C3.42656 17.2266 3.16406 17.4891 3.16406 17.8125C3.16406 18.1359 3.42656 18.3984 3.75 18.3984H16.25C16.5734 18.3984 16.8359 18.1359 16.8359 17.8125C16.8359 17.4891 16.5734 17.2266 16.25 17.2266Z" fill="black"/>
</svg>
