<svg width="20" height="20" viewBox="0 0 20 20" fill="none" xmlns="http://www.w3.org/2000/svg">
<path d="M0 8.03604V11.9637C0 12.2884 0.104667 12.5864 0.278333 12.833H19.7213C19.8953 12.5867 20 12.2884 20 11.964V8.03604C20 7.71137 19.8953 7.41337 19.7217 7.16671H0.278333C0.104667 7.41337 0 7.71171 0 8.03604ZM17.3333 10.1667C17.5173 10.1667 17.6667 10.316 17.6667 10.5C17.6667 10.684 17.5173 10.8334 17.3333 10.8334C17.1493 10.8334 17 10.684 17 10.5C17 10.316 17.1493 10.1667 17.3333 10.1667ZM16.6667 9.16671C16.8507 9.16671 17 9.31604 17 9.50004C17 9.68404 16.8507 9.83337 16.6667 9.83337C16.4827 9.83337 16.3333 9.68404 16.3333 9.50004C16.3333 9.31604 16.4827 9.16671 16.6667 9.16671ZM16 10.1667C16.184 10.1667 16.3333 10.316 16.3333 10.5C16.3333 10.684 16.184 10.8334 16 10.8334C15.816 10.8334 15.6667 10.684 15.6667 10.5C15.6667 10.316 15.816 10.1667 16 10.1667ZM15.3333 9.16671C15.5173 9.16671 15.6667 9.31604 15.6667 9.50004C15.6667 9.68404 15.5173 9.83337 15.3333 9.83337C15.1493 9.83337 15 9.68404 15 9.50004C15 9.31604 15.1493 9.16671 15.3333 9.16671ZM14.6667 10.1667C14.8507 10.1667 15 10.316 15 10.5C15 10.684 14.8507 10.8334 14.6667 10.8334C14.4827 10.8334 14.3333 10.684 14.3333 10.5C14.3333 10.316 14.4827 10.1667 14.6667 10.1667ZM14 9.16671C14.184 9.16671 14.3333 9.31604 14.3333 9.50004C14.3333 9.68404 14.184 9.83337 14 9.83337C13.816 9.83337 13.6667 9.68404 13.6667 9.50004C13.6667 9.31604 13.816 9.16671 14 9.16671ZM13.3333 10.1667C13.5173 10.1667 13.6667 10.316 13.6667 10.5C13.6667 10.684 13.5173 10.8334 13.3333 10.8334C13.1493 10.8334 13 10.684 13 10.5C13 10.316 13.1493 10.1667 13.3333 10.1667ZM12.6667 9.16671C12.8507 9.16671 13 9.31604 13 9.50004C13 9.68404 12.8507 9.83337 12.6667 9.83337C12.4827 9.83337 12.3333 9.68404 12.3333 9.50004C12.3333 9.31604 12.4827 9.16671 12.6667 9.16671ZM12 10.1667C12.184 10.1667 12.3333 10.316 12.3333 10.5C12.3333 10.684 12.184 10.8334 12 10.8334C11.816 10.8334 11.6667 10.684 11.6667 10.5C11.6667 10.316 11.816 10.1667 12 10.1667ZM11.3333 9.16671C11.5173 9.16671 11.6667 9.31604 11.6667 9.50004C11.6667 9.68404 11.5173 9.83337 11.3333 9.83337C11.1493 9.83337 11 9.68404 11 9.50004C11 9.31604 11.1493 9.16671 11.3333 9.16671ZM3.5 8.50004C4.327 8.50004 5 9.17304 5 10C5 10.827 4.327 11.5 3.5 11.5C2.673 11.5 2 10.827 2 10C2 9.17304 2.673 8.50004 3.5 8.50004Z" fill="#74BCBC"/>
<path d="M19.7217 6.50002C19.8953 6.25335 20 5.95502 20 5.63068V1.70268C20 0.855685 19.311 0.166685 18.464 0.166685H1.536C0.689 0.166685 0 0.855685 0 1.70268V5.63035C0 5.95502 0.104667 6.25302 0.278333 6.49968H19.7217V6.50002ZM17.3333 3.83335C17.5173 3.83335 17.6667 3.98268 17.6667 4.16668C17.6667 4.35068 17.5173 4.50002 17.3333 4.50002C17.1493 4.50002 17 4.35068 17 4.16668C17 3.98268 17.1493 3.83335 17.3333 3.83335ZM16.6667 2.83335C16.8507 2.83335 17 2.98268 17 3.16668C17 3.35068 16.8507 3.50002 16.6667 3.50002C16.4827 3.50002 16.3333 3.35068 16.3333 3.16668C16.3333 2.98268 16.4827 2.83335 16.6667 2.83335ZM16 3.83335C16.184 3.83335 16.3333 3.98268 16.3333 4.16668C16.3333 4.35068 16.184 4.50002 16 4.50002C15.816 4.50002 15.6667 4.35068 15.6667 4.16668C15.6667 3.98268 15.816 3.83335 16 3.83335ZM15.3333 2.83335C15.5173 2.83335 15.6667 2.98268 15.6667 3.16668C15.6667 3.35068 15.5173 3.50002 15.3333 3.50002C15.1493 3.50002 15 3.35068 15 3.16668C15 2.98268 15.1493 2.83335 15.3333 2.83335ZM14.6667 3.83335C14.8507 3.83335 15 3.98268 15 4.16668C15 4.35068 14.8507 4.50002 14.6667 4.50002C14.4827 4.50002 14.3333 4.35068 14.3333 4.16668C14.3333 3.98268 14.4827 3.83335 14.6667 3.83335ZM14 2.83335C14.184 2.83335 14.3333 2.98268 14.3333 3.16668C14.3333 3.35068 14.184 3.50002 14 3.50002C13.816 3.50002 13.6667 3.35068 13.6667 3.16668C13.6667 2.98268 13.816 2.83335 14 2.83335ZM13.3333 3.83335C13.5173 3.83335 13.6667 3.98268 13.6667 4.16668C13.6667 4.35068 13.5173 4.50002 13.3333 4.50002C13.1493 4.50002 13 4.35068 13 4.16668C13 3.98268 13.1493 3.83335 13.3333 3.83335ZM12.6667 2.83335C12.8507 2.83335 13 2.98268 13 3.16668C13 3.35068 12.8507 3.50002 12.6667 3.50002C12.4827 3.50002 12.3333 3.35068 12.3333 3.16668C12.3333 2.98268 12.4827 2.83335 12.6667 2.83335ZM12 3.83335C12.184 3.83335 12.3333 3.98268 12.3333 4.16668C12.3333 4.35068 12.184 4.50002 12 4.50002C11.816 4.50002 11.6667 4.35068 11.6667 4.16668C11.6667 3.98268 11.816 3.83335 12 3.83335ZM11.3333 2.83335C11.5173 2.83335 11.6667 2.98268 11.6667 3.16668C11.6667 3.35068 11.5173 3.50002 11.3333 3.50002C11.1493 3.50002 11 3.35068 11 3.16668C11 2.98268 11.1493 2.83335 11.3333 2.83335ZM3.5 2.16668C4.327 2.16668 5 2.83968 5 3.66668C5 4.49368 4.327 5.16668 3.5 5.16668C2.673 5.16668 2 4.49368 2 3.66668C2 2.83968 2.673 2.16668 3.5 2.16668Z" fill="black"/>
<path d="M0.278333 13.5C0.104667 13.7467 0 14.045 0 14.3693V18.297C0 19.1443 0.689 19.8333 1.536 19.8333H18.4637C19.3107 19.8333 19.9997 19.1443 19.9997 18.2973V14.3693C19.9997 14.0447 19.895 13.7467 19.7213 13.5H0.278333ZM3.5 17.8333C2.673 17.8333 2 17.1603 2 16.3333C2 15.5063 2.673 14.8333 3.5 14.8333C4.327 14.8333 5 15.5063 5 16.3333C5 17.1603 4.327 17.8333 3.5 17.8333ZM11.3333 16.1667C11.1493 16.1667 11 16.0173 11 15.8333C11 15.6493 11.1493 15.5 11.3333 15.5C11.5173 15.5 11.6667 15.6493 11.6667 15.8333C11.6667 16.0173 11.5173 16.1667 11.3333 16.1667ZM12 17.1667C11.816 17.1667 11.6667 17.0173 11.6667 16.8333C11.6667 16.6493 11.816 16.5 12 16.5C12.184 16.5 12.3333 16.6493 12.3333 16.8333C12.3333 17.0173 12.184 17.1667 12 17.1667ZM12.6667 16.1667C12.4827 16.1667 12.3333 16.0173 12.3333 15.8333C12.3333 15.6493 12.4827 15.5 12.6667 15.5C12.8507 15.5 13 15.6493 13 15.8333C13 16.0173 12.8507 16.1667 12.6667 16.1667ZM13.3333 17.1667C13.1493 17.1667 13 17.0173 13 16.8333C13 16.6493 13.1493 16.5 13.3333 16.5C13.5173 16.5 13.6667 16.6493 13.6667 16.8333C13.6667 17.0173 13.5173 17.1667 13.3333 17.1667ZM14 16.1667C13.816 16.1667 13.6667 16.0173 13.6667 15.8333C13.6667 15.6493 13.816 15.5 14 15.5C14.184 15.5 14.3333 15.6493 14.3333 15.8333C14.3333 16.0173 14.184 16.1667 14 16.1667ZM14.6667 17.1667C14.4827 17.1667 14.3333 17.0173 14.3333 16.8333C14.3333 16.6493 14.4827 16.5 14.6667 16.5C14.8507 16.5 15 16.6493 15 16.8333C15 17.0173 14.8507 17.1667 14.6667 17.1667ZM15.3333 16.1667C15.1493 16.1667 15 16.0173 15 15.8333C15 15.6493 15.1493 15.5 15.3333 15.5C15.5173 15.5 15.6667 15.6493 15.6667 15.8333C15.6667 16.0173 15.5173 16.1667 15.3333 16.1667ZM16 17.1667C15.816 17.1667 15.6667 17.0173 15.6667 16.8333C15.6667 16.6493 15.816 16.5 16 16.5C16.184 16.5 16.3333 16.6493 16.3333 16.8333C16.3333 17.0173 16.184 17.1667 16 17.1667ZM16.6667 16.1667C16.4827 16.1667 16.3333 16.0173 16.3333 15.8333C16.3333 15.6493 16.4827 15.5 16.6667 15.5C16.8507 15.5 17 15.6493 17 15.8333C17 16.0173 16.8507 16.1667 16.6667 16.1667ZM17.3333 17.1667C17.1493 17.1667 17 17.0173 17 16.8333C17 16.6493 17.1493 16.5 17.3333 16.5C17.5173 16.5 17.6667 16.6493 17.6667 16.8333C17.6667 17.0173 17.5173 17.1667 17.3333 17.1667Z" fill="black"/>
</svg>
