<svg width="32" height="32" viewBox="0 0 32 32" fill="none" xmlns="http://www.w3.org/2000/svg">
<g clip-path="url(#clip0)">
<path d="M11.25 8.5C11.25 6.43181 9.56819 4.75 7.5 4.75C5.43181 4.75 3.75 6.43181 3.75 8.5V27.3125C3.75 29.3807 5.43181 31.0625 7.5 31.0625C9.56819 31.0625 11.25 29.3807 11.25 27.3125V8.5Z" fill="black"/>
<path d="M16.9375 13.25H26.3125V15.125H16.9375V13.25Z" fill="black"/>
<path d="M31.0626 7.5625H13.0304C13.0823 7.86894 13.1251 8.179 13.1251 8.5V27.3125C13.1251 29.2693 12.1184 30.992 10.5981 32H31.0626C31.5808 32 32.0001 31.5807 32.0001 31.0625V8.5C32.0001 7.98181 31.5808 7.5625 31.0626 7.5625ZM17.8751 28.25C17.3574 28.25 16.9376 27.8302 16.9376 27.3125C16.9376 26.7946 17.3574 26.375 17.8751 26.375C18.3929 26.375 18.8126 26.7946 18.8126 27.3125C18.8126 27.8302 18.3929 28.25 17.8751 28.25ZM17.8751 24.5C17.3574 24.5 16.9376 24.0802 16.9376 23.5625C16.9376 23.0446 17.3574 22.625 17.8751 22.625C18.3929 22.625 18.8126 23.0446 18.8126 23.5625C18.8126 24.0802 18.3929 24.5 17.8751 24.5ZM17.8751 20.75C17.3574 20.75 16.9376 20.3302 16.9376 19.8125C16.9376 19.2946 17.3574 18.875 17.8751 18.875C18.3929 18.875 18.8126 19.2946 18.8126 19.8125C18.8126 20.3302 18.3929 20.75 17.8751 20.75ZM21.6251 28.25C21.1074 28.25 20.6876 27.8302 20.6876 27.3125C20.6876 26.7946 21.1074 26.375 21.6251 26.375C22.1429 26.375 22.5626 26.7946 22.5626 27.3125C22.5626 27.8302 22.1429 28.25 21.6251 28.25ZM21.6251 24.5C21.1074 24.5 20.6876 24.0802 20.6876 23.5625C20.6876 23.0446 21.1074 22.625 21.6251 22.625C22.1429 22.625 22.5626 23.0446 22.5626 23.5625C22.5626 24.0802 22.1429 24.5 21.6251 24.5ZM21.6251 20.75C21.1074 20.75 20.6876 20.3302 20.6876 19.8125C20.6876 19.2946 21.1074 18.875 21.6251 18.875C22.1429 18.875 22.5626 19.2946 22.5626 19.8125C22.5626 20.3302 22.1429 20.75 21.6251 20.75ZM25.3751 28.25C24.8574 28.25 24.4376 27.8302 24.4376 27.3125C24.4376 26.7946 24.8574 26.375 25.3751 26.375C25.8929 26.375 26.3126 26.7946 26.3126 27.3125C26.3126 27.8302 25.8929 28.25 25.3751 28.25ZM25.3751 24.5C24.8574 24.5 24.4376 24.0802 24.4376 23.5625C24.4376 23.0446 24.8574 22.625 25.3751 22.625C25.8929 22.625 26.3126 23.0446 26.3126 23.5625C26.3126 24.0802 25.8929 24.5 25.3751 24.5ZM25.3751 20.75C24.8574 20.75 24.4376 20.3302 24.4376 19.8125C24.4376 19.2946 24.8574 18.875 25.3751 18.875C25.8929 18.875 26.3126 19.2946 26.3126 19.8125C26.3126 20.3302 25.8929 20.75 25.3751 20.75ZM28.1876 16.0625C28.1876 16.5807 27.7683 17 27.2501 17H16.0001C15.482 17 15.0626 16.5807 15.0626 16.0625V12.3125C15.0626 11.7943 15.482 11.375 16.0001 11.375H27.2501C27.7683 11.375 28.1876 11.7943 28.1876 12.3125V16.0625Z" fill="#74BCBC"/>
<path d="M27.25 0H16C15.4818 0 15.0625 0.419312 15.0625 0.9375V5.625H28.1875V0.9375C28.1875 0.419312 27.7682 0 27.25 0ZM23.5 3.75H19.75C19.2318 3.75 18.8125 3.33069 18.8125 2.8125C18.8125 2.29431 19.2318 1.875 19.75 1.875H23.5C24.0182 1.875 24.4375 2.29431 24.4375 2.8125C24.4375 3.33069 24.0182 3.75 23.5 3.75Z" fill="#74BCBC"/>
<path d="M1.875 27.3125V8.5C1.875 8.179 1.91781 7.86894 1.96975 7.5625H0.9375C0.419312 7.5625 0 7.98181 0 8.5V31.0625C0 31.5807 0.419312 32 0.9375 32H4.402C2.88175 30.992 1.875 29.2693 1.875 27.3125Z" fill="#74BCBC"/>
</g>
<defs>
<clipPath id="clip0">
<rect width="32" height="32" fill="white"/>
</clipPath>
</defs>
</svg>
