<svg width="12" height="12" viewBox="0 0 12 12" fill="none" xmlns="http://www.w3.org/2000/svg">
<path d="M6.00019 0C3.30988 0 1.12891 2.18098 1.12891 4.87128C1.12891 7.31181 4.16396 10.5228 5.44297 11.7677C5.75624 12.072 6.25154 12.0783 6.5709 11.7801C7.85757 10.5808 10.8715 7.49094 10.8715 4.87101C10.8712 2.18098 8.69049 0 6.00019 0ZM6.00019 6.45403C4.88787 6.45403 3.98669 5.55285 3.98669 4.4408C3.98669 3.32875 4.88787 2.4273 6.00019 2.4273C7.11224 2.4273 8.01315 3.32848 8.01315 4.4408C8.01315 5.55312 7.11224 6.45403 6.00019 6.45403Z" fill="white"/>
</svg>
