<svg width="12" height="12" viewBox="0 0 12 12" fill="none" xmlns="http://www.w3.org/2000/svg">
<path fill-rule="evenodd" clip-rule="evenodd" d="M12 6C12 9.31371 9.31371 12 6 12C2.68629 12 0 9.31371 0 6C0 2.68629 2.68629 0 6 0C9.31371 0 12 2.68629 12 6ZM2.07337 4.0969L5.87337 6.00006L9.67337 4.0969C9.65931 3.85434 9.5532 3.62634 9.37678 3.45961C9.20036 3.29287 8.96698 3.20002 8.72444 3.20007H3.0223C2.77977 3.20002 2.54639 3.29287 2.36997 3.45961C2.19355 3.62634 2.08744 3.85434 2.07337 4.0969ZM5.87337 7.02701L9.67337 5.20007V7.88659C9.67337 8.12886 9.57328 8.36121 9.39512 8.53252C9.21696 8.70382 8.97533 8.80007 8.72337 8.80007H3.02337C2.77142 8.80007 2.52978 8.70382 2.35162 8.53252C2.17346 8.36121 2.07337 8.12886 2.07337 7.88659V5.20007L5.87337 7.02701Z" fill="#2196F3"/>
</svg>
