<svg width="32" height="39" viewBox="0 0 32 39" fill="none" xmlns="http://www.w3.org/2000/svg">
<g clip-path="url(#clip0)">
<path d="M14.5458 23.3182C17.7802 23.3182 20.4025 20.1333 20.4025 16.2045C20.4025 12.2757 19.5415 9.09082 14.5458 9.09082C9.55006 9.09082 8.68896 12.2757 8.68896 16.2045C8.68896 20.1333 11.3112 23.3182 14.5458 23.3182Z" fill="black"/>
<path d="M3.48357 34.1799C3.48258 33.9404 3.48158 34.1124 3.48357 34.1799V34.1799Z" fill="black"/>
<path d="M25.6069 34.367C25.6101 34.3014 25.608 33.912 25.6069 34.367V34.367Z" fill="black"/>
<path d="M25.5947 33.8926C25.4863 27.0486 24.5924 25.0985 17.7525 23.864C17.7525 23.864 16.7897 25.0909 14.5455 25.0909C12.3013 25.0909 11.3384 23.864 11.3384 23.864C4.57306 25.085 3.62486 27.0062 3.50019 33.6703C3.48996 34.2145 3.48523 34.2431 3.4834 34.1799C3.48381 34.2983 3.48431 34.5172 3.48431 34.8989C3.48431 34.8989 5.11274 38.1817 14.5455 38.1817C23.9781 38.1817 25.6067 34.8989 25.6067 34.8989C25.6067 34.6537 25.6069 34.4831 25.6071 34.3671C25.6053 34.4061 25.6016 34.3304 25.5947 33.8926Z" fill="black"/>
</g>
<path d="M27.7576 4.10101H29.9354V14H27.404V6.7596L25.6788 7.19798L25.0707 5.06263L27.7576 4.10101Z" fill="black"/>
<defs>
<clipPath id="clip0">
<rect width="29.0909" height="29.0909" fill="white" transform="translate(0 9.09082)"/>
</clipPath>
</defs>
</svg>
