<svg width="31" height="36" viewBox="0 0 31 36" fill="none" xmlns="http://www.w3.org/2000/svg">
<g clip-path="url(#clip0)">
<path d="M14.5458 20.2274C17.7802 20.2274 20.4025 17.0425 20.4025 13.1137C20.4025 9.18487 19.5415 6 14.5458 6C9.55006 6 8.68896 9.18487 8.68896 13.1137C8.68896 17.0425 11.3112 20.2274 14.5458 20.2274Z" fill="black"/>
<path d="M3.48357 31.0891C3.48258 30.8496 3.48158 31.0216 3.48357 31.0891V31.0891Z" fill="black"/>
<path d="M25.6069 31.2762C25.6101 31.2106 25.608 30.8212 25.6069 31.2762V31.2762Z" fill="black"/>
<path d="M25.5947 30.8018C25.4863 23.9578 24.5924 22.0076 17.7525 20.7732C17.7525 20.7732 16.7897 22.0001 14.5455 22.0001C12.3013 22.0001 11.3384 20.7732 11.3384 20.7732C4.57306 21.9942 3.62486 23.9154 3.50019 30.5795C3.48996 31.1237 3.48523 31.1522 3.4834 31.0891C3.48381 31.2074 3.48431 31.4264 3.48431 31.8081C3.48431 31.8081 5.11274 35.0909 14.5455 35.0909C23.9781 35.0909 25.6067 31.8081 25.6067 31.8081C25.6067 31.5628 25.6069 31.3923 25.6071 31.2763C25.6053 31.3153 25.6016 31.2396 25.5947 30.8018Z" fill="black"/>
</g>
<path d="M25.0214 0.235822C24.9656 0.132009 25.0316 0 25.1397 0H30.8619C30.97 0 31.036 0.133291 30.9791 0.235822L29.0076 3.86672C28.9632 3.94874 28.9632 4.05255 29.0076 4.13458L30.978 7.76418C31.0337 7.868 30.9677 8 30.8608 8H25.1385C25.0305 8 24.9645 7.86799 25.0202 7.76418L26.9815 4.13328C27.0259 4.05127 27.0259 3.94874 26.9815 3.8667L25.0214 0.235822Z" fill="black"/>
<defs>
<clipPath id="clip0">
<rect width="29.0909" height="29.0909" fill="white" transform="translate(0 6)"/>
</clipPath>
</defs>
</svg>
