<svg width="32" height="32" viewBox="0 0 32 32" fill="none" xmlns="http://www.w3.org/2000/svg">
<path d="M28.3594 3H3.64062C2.73609 3 2 3.75196 2 4.67598V21.324C2 22.248 2.73609 23 3.64062 23H28.3594C29.2639 23 30 22.248 30 21.324V4.67598C30 3.75196 29.2639 3 28.3594 3Z" fill="black"/>
<path d="M26 27.5625H20.9375V24.8125H11.0625V27.5625H6C5.4825 27.5625 5.0625 27.9825 5.0625 28.5C5.0625 29.0175 5.4825 29.4375 6 29.4375H26C26.5175 29.4375 26.9375 29.0175 26.9375 28.5C26.9375 27.9825 26.5175 27.5625 26 27.5625Z" fill="black"/>
</svg>
