<svg width="12" height="12" viewBox="0 0 12 12" fill="none" xmlns="http://www.w3.org/2000/svg">
<path d="M6 12C9.31371 12 12 9.31371 12 6C12 2.68629 9.31371 0 6 0C2.68629 0 0 2.68629 0 6C0 9.31371 2.68629 12 6 12Z" fill="#2196F3"/>
<path d="M9 7.2405C8.35275 7.2405 7.7355 7.0995 7.16625 6.82125C7.077 6.7785 6.9735 6.77175 6.879 6.804C6.7845 6.837 6.70725 6.906 6.66375 6.99525L6.39375 7.554C5.58375 7.089 4.91175 6.41625 4.446 5.60625L5.0055 5.33625C5.0955 5.29275 5.16375 5.2155 5.19675 5.121C5.229 5.0265 5.223 4.923 5.1795 4.83375C4.9005 4.26525 4.7595 3.648 4.7595 3C4.7595 2.793 4.5915 2.625 4.3845 2.625H3C2.793 2.625 2.625 2.793 2.625 3C2.625 6.51525 5.48475 9.375 9 9.375C9.207 9.375 9.375 9.207 9.375 9V7.6155C9.375 7.4085 9.207 7.2405 9 7.2405Z" fill="#FAFAFA"/>
</svg>
