<svg width="12" height="12" viewBox="0 0 12 12" fill="none" xmlns="http://www.w3.org/2000/svg">
<g clip-path="url(#clip0)">
<path d="M5.91425 5.78043C6.70837 5.78043 7.39603 5.49561 7.95789 4.93367C8.51974 4.37181 8.80457 3.68434 8.80457 2.89013C8.80457 2.09618 8.51974 1.40862 7.95779 0.846585C7.39584 0.284819 6.70828 0 5.91425 0C5.12003 0 4.43256 0.284819 3.8707 0.846676C3.30884 1.40853 3.02393 2.09609 3.02393 2.89013C3.02393 3.68434 3.30884 4.3719 3.87079 4.93376C4.43274 5.49552 5.1203 5.78043 5.91425 5.78043Z" fill="#2196F3"/>
<path d="M10.9718 9.22743C10.9556 8.99361 10.9228 8.73855 10.8745 8.4692C10.8258 8.19784 10.7631 7.94131 10.688 7.70684C10.6105 7.4645 10.505 7.22518 10.3747 6.99585C10.2393 6.75781 10.0804 6.55053 9.90207 6.37997C9.71558 6.20154 9.48724 6.05807 9.22321 5.95343C8.96008 5.84933 8.66849 5.7966 8.35657 5.7966C8.23407 5.7966 8.1156 5.84686 7.88681 5.99582C7.746 6.08765 7.5813 6.19385 7.39746 6.31131C7.24026 6.41147 7.02731 6.50531 6.76428 6.59027C6.50766 6.67331 6.2471 6.71542 5.98993 6.71542C5.73276 6.71542 5.47229 6.67331 5.21539 6.59027C4.95264 6.5054 4.73969 6.41156 4.58267 6.3114C4.40057 6.19504 4.23578 6.08884 4.09286 5.99573C3.86435 5.84677 3.74579 5.79651 3.62329 5.79651C3.31128 5.79651 3.01978 5.84933 2.75674 5.95352C2.49289 6.05798 2.26447 6.20145 2.07779 6.38006C1.89954 6.55072 1.74051 6.7579 1.60538 6.99585C1.4751 7.22518 1.36963 7.46441 1.29199 7.70693C1.21701 7.9414 1.1543 8.19784 1.10559 8.4692C1.05734 8.73818 1.02457 8.99334 1.00836 9.22771C0.992432 9.45732 0.984375 9.69563 0.984375 9.93633C0.984375 10.5627 1.1835 11.0698 1.57617 11.4438C1.96399 11.8129 2.47714 12.0001 3.10117 12.0001H8.87924C9.50327 12.0001 10.0162 11.813 10.4041 11.4438C10.7969 11.0701 10.996 10.5629 10.996 9.93623C10.9959 9.69444 10.9878 9.45595 10.9718 9.22743Z" fill="#2196F3"/>
</g>
<defs>
<clipPath id="clip0">
<rect width="12" height="12" fill="white"/>
</clipPath>
</defs>
</svg>
