<svg width="164" height="37" fill="none" xmlns="http://www.w3.org/2000/svg"><g clip-path="url(#clip0)"><path d="M164 34.752c0 1.243-9.805 2.248-21.899 2.248-12.094 0-21.899-1.005-21.899-2.248 0-1.24 9.805-2.246 21.899-2.246 12.094 0 21.899 1.006 21.899 2.246z" fill="url(#paint0_radial)"/><path d="M142.101.594c-9.406 0-17.059 7.636-17.059 17.02s7.652 17.02 17.059 17.02a17.05 17.05 0 009.157-2.663c.363-.253 2.203-1.534 2.616-2.058l.336-.423-7.136-7.056-.424.424c-.833.831-3.005 1.451-4.394 1.451l-.135-.003c-2.092-.064-4.007-1.01-5.267-2.567l16.113-5.019-.065-.501c-.693-5.397-5.336-9.47-10.8-9.47-6.004 0-10.888 4.875-10.888 10.864 0 5.99 4.884 10.863 10.888 10.863 1.399 0 2.76-.262 4.048-.779l1.362 1.32c-1.685.8-3.54 1.216-5.41 1.216-6.975 0-12.65-5.66-12.65-12.62 0-6.96 5.675-12.62 12.65-12.62 6.975 0 12.65 5.66 12.65 12.62 0 2.095-.53 4.173-1.532 6.008l-.226.416 3.321 3.018.382-.625a16.974 16.974 0 002.464-8.817C159.16 8.23 151.507.595 142.101.595zm0 10.327a6.698 6.698 0 015.559 2.948l-12.269 3.733c.008-3.685 3.015-6.681 6.71-6.681zM4.869 1.84H0v4.526h4.869V1.84z" fill="#FC5E06"/><path d="M18.701 6.366V27.38h-4.869V6.366h-6.86V1.84h18.59v4.526h-6.86zm19.033 21.455c-6.972 0-12.393-5.853-12.393-13.322 0-7.47 5.421-13.32 12.393-13.32 5.791 0 10.07 3.275 11.655 8.5h-5.274c-1.144-2.319-3.43-4.048-6.38-4.048-4.206 0-7.526 4.047-7.526 8.868 0 4.858 3.32 8.906 7.525 8.906 2.913 0 5.237-1.805 6.381-4.121h5.237c-1.622 5.188-5.938 8.537-11.617 8.537zm22.095 0c-5.312 0-8.447-3.497-8.447-8.465V8.426h4.87v11.078c0 1.066.369 3.606 3.577 3.606 2.14 0 3.69-1.51 3.69-3.606V8.427h4.867v10.93c0 4.82-3.393 8.464-8.557 8.464zM71.448 0h4.906v19.43c0 2.687 1.217 3.643 3.615 3.496v4.415c-5.57.59-8.52-2.723-8.52-7.91V0zm18.258 27.34c-5.57.59-8.52-2.76-8.52-7.948V3.607h4.868v4.82h3.43v4.306h-3.43v6.698c0 2.648 1.218 3.642 3.652 3.495v4.415zm10.845.481c-5.311 0-8.448-3.497-8.448-8.465V8.426h4.869v11.078c0 1.066.37 3.606 3.579 3.606 2.14 0 3.688-1.51 3.688-3.606V8.427h4.869v10.93c0 4.82-3.393 8.464-8.557 8.464zm21.616-15.199c-3.099-.552-5.163 1.104-5.163 3.79V27.38h-4.871V16.413c0-5.374 3.726-9.127 10.033-8.354v4.563h.001zM4.869 8.427H0v18.952h4.869V8.427z" fill="#1B262D"/><path d="M3.3 34.673h-.75v-1.655H.865v1.655H.11v-3.921h.756v1.57h1.683v-1.57h.75v3.92zm5.166-.785l-.267.784h-.796l1.376-3.92h.95l1.375 3.92h-.796l-.267-.784H8.466zm.785-2.306l-.552 1.61h1.104l-.552-1.61zm7.481 3.158c-1.076 0-1.91-.897-1.91-2.044 0-1.148.834-2.046 1.91-2.046.892 0 1.551.503 1.796 1.305h-.813a1.088 1.088 0 00-.984-.621c-.65 0-1.16.62-1.16 1.362 0 .745.51 1.368 1.16 1.368.448 0 .807-.278.984-.634h.807c-.25.797-.915 1.31-1.79 1.31zm7.525-3.294v3.226h-.75v-3.226h-1.058v-.695h2.865v.695h-1.057zm8.725 1.25c0 1.14-.813 2.044-1.927 2.044-1.12 0-1.933-.904-1.933-2.044 0-1.137.813-2.041 1.933-2.041 1.114 0 1.927.904 1.927 2.04zm-.756 0c0-.73-.523-1.335-1.171-1.335-.654 0-1.177.605-1.177 1.335 0 .733.523 1.338 1.177 1.338.647 0 1.171-.605 1.171-1.338zm4.996.954c0-.43.182-.683.472-.836-.34-.158-.551-.447-.551-.893 0-.735.528-1.17 1.354-1.17h1.801v3.922h-.75v-1.514h-1.023c-.352 0-.552.152-.552.486v.599c0 .18-.034.322-.08.429h-.761c.046-.113.09-.334.09-.475v-.548zm2.326-2.204h-1.052c-.45 0-.603.21-.603.514 0 .322.176.526.586.526h1.069v-1.04zm7.019-.694h.75v3.225h1.08v-3.225h.751v3.225h.399v1.419h-.751v-.723h-2.57c-.972.011-1.512-.588-1.512-1.548v-2.373h.75v2.396c0 .558.262.83.763.83h.34v-3.226zm10.143 3.921h-2.924v-3.921h2.883v.694h-2.132v.837h1.82v.695h-1.82v1h2.172v.695zm7.155 0h-2.922v-3.921h2.883v.694h-2.133v.837h1.82v.695h-1.82v1h2.173v.695zm10.434-3.243v.863h1.171c.75 0 1.24.486 1.24 1.188 0 .7-.489 1.191-1.24 1.191h-1.922v-3.92h2.735v.678H74.3zm1.069 1.548h-1.07v1.011h1.07c.38 0 .574-.17.574-.508 0-.34-.193-.503-.574-.503zm6.855.362c-.858 0-1.438-.526-1.438-1.532V30.75h.75v1.08c0 .582.267.813.767.813.501 0 .767-.277.767-.813v-1.08h.757v2.367c0 1-.483 1.622-1.54 1.622-.79 0-1.36-.463-1.508-1.051h.826c.095.204.323.356.682.356.495 0 .784-.295.784-.904v-.153c-.17.204-.45.352-.847.352zm9.623.637v1.419h-.75v-.723H88.56v.723h-.75v-1.419c.375-.039.648-.22.699-.711l.266-2.514h2.68v3.225h.391zm-1.142 0v-2.53h-1.24l-.194 1.824c-.033.33-.119.555-.238.706h1.672zm6.628-.637c-.859 0-1.438-.526-1.438-1.532V30.75h.75v1.08c0 .582.268.813.767.813.5 0 .767-.277.767-.813v-1.08h.757v2.367c0 1-.483 1.622-1.54 1.622-.79 0-1.359-.463-1.507-1.051h.824c.097.204.324.356.682.356.495 0 .784-.295.784-.904v-.153c-.17.204-.448.352-.846.352zm7.838-2.588h.75v3.225H107v-3.225h.75v3.225h.398v1.419h-.751v-.723h-2.57c-.971.011-1.511-.588-1.511-1.548v-2.373h.751v2.396c0 .558.261.83.76.83h.343v-3.226zm10.142 3.921h-2.921v-3.921h2.881v.694h-2.132v.837h1.82v.695h-1.82v1h2.172v.695zm7.156 0h-2.922v-3.921h2.882v.694h-2.132v.837h1.819v.695h-1.819v1h2.172v.695z" fill="#FC5E06"/></g><defs><radialGradient id="paint0_radial" cx="0" cy="0" r="1" gradientUnits="userSpaceOnUse" gradientTransform="matrix(21.9011 0 0 2.24713 142.101 34.753)"><stop stop-color="#9E9E9E"/><stop offset="1" stop-color="#fff" stop-opacity="0"/></radialGradient><clipPath id="clip0"><path fill="#fff" d="M0 0h164v37H0z"/></clipPath></defs></svg>