<svg width="12" height="12" fill="none" xmlns="http://www.w3.org/2000/svg"><g clip-path="url(#clip0)" fill="#fff"><path d="M1.375 0C.615 0 0 .616 0 1.375V5.75h5.75V0H1.375zm2.25 3.375h-.5v.5a.375.375 0 01-.75 0v-.5h-.5a.375.375 0 010-.75h.5v-.5a.375.375 0 01.75 0v.5h.5a.375.375 0 010 .75zM0 6.25v4.375C0 11.385.616 12 1.375 12H5.75V6.25H0zm3.765 3.235a.375.375 0 01-.53.53l-.36-.36-.36.36a.374.374 0 11-.53-.53l.36-.36-.36-.36a.375.375 0 11.53-.531l.36.36.36-.36a.375.375 0 11.531.53l-.36.36.359.36zM10.625 0H6.25v5.75H12V1.375C12 .615 11.384 0 10.625 0zm-.25 3.25h-2.25a.375.375 0 010-.75h2.25a.375.375 0 010 .75zm-4.125 3V12h4.375c.76 0 1.375-.616 1.375-1.375V6.25H6.25zm4 4H8a.375.375 0 010-.75h2.25a.375.375 0 010 .75zm0-1.5H8A.375.375 0 018 8h2.25a.375.375 0 010 .75z"/></g><defs><clipPath id="clip0"><path fill="#fff" d="M0 0h12v12H0z"/></clipPath></defs></svg>