<svg width="32" height="32" fill="none" xmlns="http://www.w3.org/2000/svg"><g clip-path="url(#clip0)"><path d="M11.25 8.5A3.754 3.754 0 007.5 4.75 3.754 3.754 0 003.75 8.5v18.813a3.754 3.754 0 003.75 3.75 3.754 3.754 0 003.75-3.75V8.5zm5.688 4.75h9.375v1.875h-9.375V13.25z" fill="#000"/><path d="M31.063 7.563H13.03c.052.306.095.616.095.937v18.813A5.62 5.62 0 0110.598 32h20.465c.518 0 .937-.42.937-.938V8.5a.937.937 0 00-.937-.938zM17.875 28.25a.938.938 0 110-1.875.938.938 0 010 1.875zm0-3.75a.938.938 0 110-1.875.938.938 0 010 1.875zm0-3.75a.938.938 0 110-1.875.938.938 0 010 1.875zm3.75 7.5a.938.938 0 110-1.875.938.938 0 010 1.875zm0-3.75a.938.938 0 110-1.875.938.938 0 010 1.875zm0-3.75a.938.938 0 110-1.875.938.938 0 010 1.875zm3.75 7.5a.938.938 0 110-1.875.938.938 0 010 1.875zm0-3.75a.938.938 0 110-1.875.938.938 0 010 1.875zm0-3.75a.938.938 0 110-1.875.938.938 0 010 1.875zm2.813-4.688c0 .519-.42.938-.938.938H16a.937.937 0 01-.937-.938v-3.75c0-.518.419-.937.937-.937h11.25c.518 0 .938.42.938.938v3.75zM27.25 0H16a.937.937 0 00-.938.938v4.687h13.126V.937A.937.937 0 0027.25 0zM23.5 3.75h-3.75a.937.937 0 110-1.875h3.75a.937.937 0 110 1.875zM1.875 27.313V8.5c0-.321.043-.631.095-.938H.938A.937.937 0 000 8.5v22.563c0 .518.42.937.938.937h3.464a5.62 5.62 0 01-2.527-4.688z" fill="#74BCBC"/></g><defs><clipPath id="clip0"><path fill="#fff" d="M0 0h32v32H0z"/></clipPath></defs></svg>