<svg width="31" height="36" fill="none" xmlns="http://www.w3.org/2000/svg"><g clip-path="url(#clip0)" fill="#000"><path d="M14.546 20.227c3.234 0 5.857-3.184 5.857-7.113 0-3.93-.861-7.114-5.857-7.114s-5.857 3.185-5.857 7.114c0 3.928 2.622 7.113 5.857 7.113zM3.484 31.09c-.001-.24-.002-.068 0 0zm22.123.186c.003-.065.001-.455 0 0z"/><path d="M25.595 30.802c-.109-6.844-1.003-8.794-7.842-10.029 0 0-.963 1.227-3.207 1.227-2.245 0-3.208-1.227-3.208-1.227-6.765 1.221-7.713 3.142-7.838 9.806-.01.545-.015.573-.017.51l.001.72s1.629 3.282 11.061 3.282c9.433 0 11.062-3.283 11.062-3.283v-.532c-.002.04-.005-.036-.012-.474z"/></g><path d="M25.021.236c-.055-.104.01-.236.119-.236h5.722c.108 0 .174.133.117.236l-1.971 3.63a.286.286 0 000 .269l1.97 3.63c.056.103-.01.235-.117.235h-5.723c-.108 0-.174-.132-.118-.236l1.962-3.63a.283.283 0 000-.267L25.021.236z" fill="#000"/><defs><clipPath id="clip0"><path fill="#fff" transform="translate(0 6)" d="M0 0h29.091v29.091H0z"/></clipPath></defs></svg>