<svg width="32" height="39" fill="none" xmlns="http://www.w3.org/2000/svg"><g clip-path="url(#clip0)" fill="#000"><path d="M14.546 23.318c3.234 0 5.857-3.185 5.857-7.114 0-3.928-.861-7.113-5.857-7.113s-5.857 3.185-5.857 7.114c0 3.928 2.622 7.113 5.857 7.113zM3.484 34.18c-.001-.24-.002-.068 0 0zm22.123.187c.003-.066.001-.455 0 0z"/><path d="M25.595 33.893c-.109-6.844-1.003-8.794-7.842-10.029 0 0-.963 1.227-3.207 1.227-2.245 0-3.208-1.227-3.208-1.227-6.765 1.221-7.713 3.142-7.838 9.806-.01.544-.015.573-.017.51l.001.719s1.629 3.283 11.061 3.283c9.433 0 11.062-3.283 11.062-3.283v-.532c-.002.04-.005-.037-.012-.474z"/></g><path d="M27.758 4.101h2.177V14h-2.531V6.76l-1.725.438-.608-2.135 2.687-.962z" fill="#000"/><defs><clipPath id="clip0"><path fill="#fff" transform="translate(0 9.09)" d="M0 0h29.091v29.091H0z"/></clipPath></defs></svg>