<svg width="12" height="12" fill="none" xmlns="http://www.w3.org/2000/svg"><g clip-path="url(#clip0)" fill="#2196F3"><path d="M5.914 5.78c.794 0 1.482-.284 2.044-.846s.847-1.25.847-2.044S8.52 1.41 7.958.847A2.797 2.797 0 005.914 0C5.12 0 4.433.285 3.871.847a2.797 2.797 0 00-.847 2.043c0 .794.285 1.482.847 2.044s1.25.846 2.043.846zm5.058 3.447a7.125 7.125 0 00-.098-.758 5.969 5.969 0 00-.186-.762 3.766 3.766 0 00-.313-.711 2.686 2.686 0 00-.473-.616 2.084 2.084 0 00-.679-.427 2.346 2.346 0 00-.866-.156c-.123 0-.241.05-.47.199a50.67 50.67 0 01-.49.315c-.157.1-.37.194-.633.28a2.514 2.514 0 01-.774.124c-.257 0-.518-.042-.775-.125a2.798 2.798 0 01-.632-.279 67.08 67.08 0 01-.49-.315c-.229-.15-.347-.2-.47-.2-.312 0-.603.053-.866.158a2.082 2.082 0 00-.68.426c-.177.17-.336.378-.472.616-.13.23-.235.468-.313.71a5.99 5.99 0 00-.186.763 7.115 7.115 0 00-.098.759c-.016.23-.024.468-.024.708 0 .627.2 1.134.592 1.508.388.369.901.556 1.525.556H8.88c.624 0 1.137-.187 1.525-.556.393-.374.592-.881.592-1.508 0-.242-.008-.48-.024-.709z"/></g><defs><clipPath id="clip0"><path fill="#fff" d="M0 0h12v12H0z"/></clipPath></defs></svg>