<svg width="215" height="49" viewBox="0 0 215 49" fill="none" xmlns="http://www.w3.org/2000/svg">
<path d="M188.163 38.7523L184.36 31.1321L180.553 38.7523H188.163ZM102.885 20.5155L95.2771 24.3244L102.885 28.1356V20.5155ZM34.1504 29.1095L37.9555 36.7296L41.7629 29.1095H34.1504ZM208.165 12.8766C206.894 12.8766 205.657 13.8458 205.657 15.3183C205.657 16.8985 206.929 17.7928 208.165 17.7928C209.544 17.7928 210.727 16.8634 210.727 15.3722C210.727 13.8458 209.49 12.8766 208.181 12.8766H208.165ZM197.682 20.6676V17.6898H204.007C202.878 16.6293 202.878 15.2106 202.878 14.7963C202.878 12.7174 204.367 9.8988 208.13 9.8988C211.713 9.8988 213.506 12.392 213.506 14.9227C213.506 16.325 212.826 17.4019 212.108 17.8139H213.162V20.6676H197.682ZM208.238 30.6616C209.149 30.6616 210.727 29.9803 210.727 28.1848C210.727 27.1266 210.224 26.4781 209.616 26.1012C209.221 25.8507 208.791 25.7243 208.343 25.6892C207.896 25.6541 207.45 25.743 207.036 25.9397C206.356 26.2628 205.657 26.944 205.657 28.2035C205.657 29.9101 207.09 30.6616 208.216 30.6616H208.238ZM213.162 22.709V25.6892H212.087C213.059 26.2276 213.506 27.4661 213.506 28.6319C213.506 31.7923 211.033 33.6418 208.181 33.6418C204.921 33.6418 202.878 31.2913 202.878 28.6319C202.878 27.0002 203.666 26.0848 204.276 25.6892H203.219V22.709H213.162ZM197.682 38.7523V35.7721H213.162V38.7523H197.682Z" fill="#D52B1E"/>
<path d="M133.34 42.7813L135.56 47.6133C146.099 39.539 148.039 30.5212 141.179 20.8574C135.745 13.1998 141.726 6.38966 143.526 4.61983L139.491 1.38684C136.855 4.28506 129.937 13.3426 135.986 22.4516C141.847 31.2751 141.24 36.0578 133.34 42.7813ZM51.4627 42.7813L53.6831 47.6133C64.2219 39.539 66.1618 30.5212 59.2996 20.8574C53.8678 13.1998 59.8465 6.38966 61.6462 4.61983L57.6144 1.38684C54.9756 4.28506 48.0573 13.3426 54.1108 22.4516C59.9704 31.2751 59.3627 36.0578 51.4627 42.7813ZM191.033 9.8989L184.36 21.4777L177.682 9.8989H172.251L184.36 30.9075L196.469 9.8989H191.033ZM82.1908 11.5353C80.2883 10.4163 77.958 9.8989 74.8565 9.8989H68.055V38.7524H73.4915V15.3418H74.8565C78.6195 15.3418 81.1998 16.2712 81.1998 19.6588C81.1998 22.8215 78.0913 24.2074 74.4895 24.3198C74.3797 24.3221 73.9753 24.3221 73.7065 24.3245L77.3176 29.4912C79.1033 29.1751 80.7067 28.5945 82.0459 27.7728C82.1441 27.7096 82.2422 27.6417 82.3404 27.5762C85.0727 25.7666 86.6363 22.9011 86.6363 19.6588C86.6363 16.105 85.0563 13.2209 82.1908 11.5353ZM125.225 27.5762C127.955 25.7666 129.518 22.9011 129.518 19.6588C129.518 16.105 127.938 13.2209 125.07 11.5353C123.173 10.4163 120.84 9.8989 117.738 9.8989H110.937V38.7524H116.373V15.3418H117.738C121.501 15.3418 124.084 16.2712 124.084 19.6588C124.084 22.8215 120.976 24.2074 117.374 24.3198C117.259 24.3221 116.86 24.3221 116.591 24.3245L126.676 38.7524H133.036L125.225 27.5762ZM161.946 24.3245L172.031 9.8989H165.669L155.586 24.3245L165.669 38.7524H172.031L161.946 24.3245ZM155.369 9.8989H149.934V38.7524H155.369V9.8989ZM13.5077 24.3245L23.5931 9.8989H17.2333L7.14801 24.3245L17.2333 38.7524H23.5931L13.5077 24.3245ZM6.93064 9.8989H1.49414V38.7524H6.93064V9.8989ZM106.746 15.3418V9.8989H89.628V38.7524H106.746V33.3094H95.0599V15.3418H106.746ZM51.9044 38.7524H46.468L37.9556 20.4688L29.4456 38.7524H24.0068L37.9556 8.79393L51.9044 38.7524Z" fill="#006D55"/>
</svg>
