<svg width="215" height="49" fill="none" xmlns="http://www.w3.org/2000/svg"><path d="M188.163 38.752l-3.803-7.62-3.807 7.62h7.61zm-85.278-18.237l-7.608 3.81 7.608 3.81v-7.62zM34.15 29.11l3.806 7.62 3.807-7.62H34.15zm174.015-16.233c-1.271 0-2.508.969-2.508 2.441 0 1.58 1.272 2.475 2.508 2.475 1.379 0 2.562-.93 2.562-2.42 0-1.527-1.237-2.496-2.546-2.496h-.016zm-10.483 7.79V17.69h6.325c-1.129-1.06-1.129-2.48-1.129-2.894 0-2.079 1.489-4.897 5.252-4.897 3.583 0 5.376 2.493 5.376 5.024 0 1.402-.68 2.479-1.398 2.89h1.054v2.855h-15.48zm10.556 9.995c.911 0 2.489-.682 2.489-2.477 0-1.058-.503-1.707-1.111-2.084a2.738 2.738 0 00-1.273-.412 2.568 2.568 0 00-1.307.25c-.68.324-1.379 1.005-1.379 2.264 0 1.707 1.433 2.459 2.559 2.459h.022zm4.924-7.953v2.98h-1.075c.972.539 1.419 1.777 1.419 2.943 0 3.16-2.473 5.01-5.325 5.01-3.26 0-5.303-2.35-5.303-5.01 0-1.632.788-2.547 1.398-2.943h-1.057v-2.98h9.943zm-15.48 16.043v-2.98h15.48v2.98h-15.48z" fill="#D52B1E"/><path d="M133.34 42.781l2.22 4.832c10.539-8.074 12.479-17.092 5.619-26.756-5.434-7.657.547-14.467 2.347-16.237l-4.035-3.233c-2.636 2.898-9.554 11.956-3.505 21.065 5.861 8.823 5.254 13.606-2.646 20.33zm-81.877 0l2.22 4.832C64.222 39.54 66.162 30.521 59.3 20.857 53.868 13.2 59.847 6.39 61.646 4.62l-4.032-3.233c-2.638 2.898-9.557 11.956-3.503 21.065 5.86 8.823 5.252 13.606-2.648 20.33zM191.033 9.9l-6.673 11.579-6.678-11.58h-5.431l12.109 21.01 12.109-21.01h-5.436zM82.191 11.535C80.288 10.416 77.958 9.9 74.856 9.9h-6.801v28.853h5.436v-23.41h1.365c3.764 0 6.344.93 6.344 4.317 0 3.163-3.109 4.548-6.71 4.66-.11.003-.515.003-.783.006l3.61 5.166c1.786-.316 3.39-.896 4.729-1.718.098-.063.196-.131.294-.197 2.733-1.81 4.296-4.675 4.296-7.917 0-3.554-1.58-6.438-4.445-8.124zm43.034 16.041c2.73-1.81 4.293-4.675 4.293-7.917 0-3.554-1.58-6.438-4.448-8.124-1.897-1.119-4.23-1.636-7.332-1.636h-6.801v28.853h5.436v-23.41h1.365c3.763 0 6.346.93 6.346 4.317 0 3.163-3.108 4.548-6.71 4.66-.115.003-.514.003-.783.006l10.085 14.427h6.36l-7.811-11.176zm36.721-3.252L172.031 9.9h-6.362l-10.083 14.426 10.083 14.427h6.362l-10.085-14.428zM155.369 9.9h-5.435v28.853h5.435V9.9zM13.508 24.325L23.593 9.899h-6.36L7.148 24.325l10.085 14.427h6.36L13.508 24.324zM6.93 9.899H1.494v28.853h5.437V9.9zm99.815 5.443V9.899H89.628v28.853h17.118V33.31H95.06V15.342h11.686zm-54.842 23.41h-5.436L37.956 20.47l-8.51 18.283h-5.44l13.95-29.958 13.948 29.958z" fill="#006D55"/></svg>