<svg width="164" height="37" viewBox="0 0 164 37" fill="none" xmlns="http://www.w3.org/2000/svg">
<g clip-path="url(#clip0)">
<path d="M164 34.7518C164 35.9951 154.195 37 142.101 37C130.007 37 120.202 35.9951 120.202 34.7518C120.202 33.5124 130.007 32.5056 142.101 32.5056C154.195 32.5051 164 33.5124 164 34.7518Z" fill="url(#paint0_radial)"/>
<path d="M142.101 0.594116C132.695 0.594116 125.042 8.22971 125.042 17.6145C125.042 26.9982 132.694 34.6338 142.101 34.6338C145.347 34.6338 148.505 33.7173 151.258 31.9711C151.621 31.7184 153.461 30.437 153.874 29.9132L154.21 29.4903L147.074 22.4337L146.65 22.8575C145.817 23.6892 143.645 24.3091 142.256 24.3091L142.121 24.3062C140.029 24.2423 138.114 23.2965 136.854 21.7386L152.967 16.7204L152.902 16.2189C152.209 10.8217 147.566 6.74883 142.102 6.74883C136.098 6.74883 131.214 11.6236 131.214 17.6135C131.214 23.6028 136.098 28.4757 142.102 28.4757C143.501 28.4757 144.862 28.2138 146.15 27.6972L147.512 29.0166C145.827 29.8161 143.972 30.2331 142.102 30.2331C135.127 30.2331 129.452 24.5725 129.452 17.6135C129.452 10.6535 135.127 4.99236 142.102 4.99236C149.077 4.99236 154.752 10.6535 154.752 17.6135C154.752 19.708 154.222 21.7859 153.22 23.6209L152.994 24.0365L156.315 27.0553L156.697 26.4295C158.308 23.778 159.161 20.7294 159.161 17.6135C159.16 8.22971 151.507 0.594116 142.101 0.594116ZM142.101 10.9208C144.349 10.9208 146.418 12.0334 147.66 13.8689L135.391 17.6018C135.399 13.9167 138.406 10.9208 142.101 10.9208Z" fill="#FC5E06"/>
<path d="M4.8687 1.84033H0V6.36637H4.8687V1.84033Z" fill="#FC5E06"/>
<path d="M18.7014 6.36637V27.3786H13.8323V6.36637H6.97168V1.84033H25.562V6.36637H18.7014Z" fill="#1B262D"/>
<path d="M37.7345 27.8211C30.7625 27.8211 25.3408 21.9678 25.3408 14.4991C25.3408 7.0293 30.7625 1.17847 37.7345 1.17847C43.5253 1.17847 47.8044 4.45386 49.3895 9.67839H44.115C42.9714 7.3605 40.6842 5.63134 37.7345 5.63134C33.5288 5.63134 30.209 9.67839 30.209 14.4995C30.209 19.3573 33.5288 23.4048 37.7345 23.4048C40.6475 23.4048 42.9714 21.6005 44.115 19.2836H49.3523C47.7296 24.4716 43.4139 27.8211 37.7345 27.8211Z" fill="#1B262D"/>
<path d="M59.8287 27.8211C54.5171 27.8211 51.3821 24.3238 51.3821 19.3563V8.42676H56.2513V19.5041C56.2513 20.5699 56.6209 23.1102 59.8287 23.1102C61.9682 23.1102 63.5181 21.6 63.5181 19.5041V8.42676H68.3863V19.3563C68.3863 24.1769 64.9932 27.8211 59.8287 27.8211Z" fill="#1B262D"/>
<path d="M71.4485 0H76.3543V19.4309C76.3543 22.1166 77.5713 23.0731 79.9689 22.9263V27.3411C74.3991 27.9308 71.4485 24.6184 71.4485 19.4309V0Z" fill="#1B262D"/>
<path d="M89.7062 27.3406C84.1364 27.9303 81.1858 24.5798 81.1858 19.3924V3.60706H86.0545V8.42723H89.4848V12.7333H86.0545V19.4309C86.0545 22.0795 87.2719 23.0731 89.7062 22.9263V27.3406Z" fill="#1B262D"/>
<path d="M100.551 27.8211C95.2395 27.8211 92.1035 24.3238 92.1035 19.3563V8.42676H96.9717V19.5041C96.9717 20.5699 97.3413 23.1102 100.551 23.1102C102.691 23.1102 104.239 21.6 104.239 19.5041V8.42676H109.108V19.3563C109.108 24.1769 105.715 27.8211 100.551 27.8211Z" fill="#1B262D"/>
<path d="M122.167 12.6221C119.068 12.0699 117.004 13.7259 117.004 16.4125V27.3786H112.133V16.4125C112.133 11.0392 115.859 7.28631 122.166 8.05943V12.6221H122.167Z" fill="#1B262D"/>
<path d="M4.8687 8.42676H0V27.3787H4.8687V8.42676Z" fill="#1B262D"/>
<path d="M3.29984 34.6728H2.54935V33.0178H0.865983V34.6728H0.110107V30.7516H0.865983V32.3227H2.54886V30.7516H3.29935V34.6728H3.29984Z" fill="#FC5E06"/>
<path d="M8.46624 33.8875L8.1988 34.6723H7.40283L8.77866 30.7511H9.72815L11.104 34.6723H10.308L10.0406 33.8875H8.46624ZM9.25096 31.5823L8.69946 33.1924H9.80296L9.25096 31.5823Z" fill="#FC5E06"/>
<path d="M16.7315 34.7401C15.6564 34.7401 14.8213 33.8426 14.8213 32.6959C14.8213 31.5476 15.6564 30.6497 16.7315 30.6497C17.6238 30.6497 18.2834 31.1526 18.5278 31.9549H17.7147C17.5382 31.5994 17.1857 31.334 16.731 31.334C16.0817 31.334 15.5713 31.9549 15.5713 32.6964C15.5713 33.4412 16.0817 34.0636 16.731 34.0636C17.1794 34.0636 17.5382 33.7865 17.7147 33.43H18.5219C18.2721 34.227 17.6067 34.7401 16.7315 34.7401Z" fill="#FC5E06"/>
<path d="M24.2568 31.4457V34.6723H23.5063V31.4457H22.4487V30.7511H25.3138V31.4457H24.2568Z" fill="#FC5E06"/>
<path d="M32.9819 32.6959C32.9819 33.8363 32.1688 34.7401 31.055 34.7401C29.9349 34.7401 29.1223 33.8358 29.1223 32.6959C29.1223 31.5594 29.9354 30.655 31.055 30.655C32.1688 30.655 32.9819 31.5594 32.9819 32.6959ZM32.226 32.6959C32.226 31.9662 31.7029 31.3613 31.055 31.3613C30.4008 31.3613 29.8777 31.9662 29.8777 32.6959C29.8777 33.4295 30.4008 34.0343 31.055 34.0343C31.7024 34.0343 32.226 33.4295 32.226 32.6959Z" fill="#FC5E06"/>
<path d="M37.222 33.6504C37.222 33.2207 37.4044 32.9666 37.6943 32.8139C37.3531 32.6559 37.1428 32.3671 37.1428 31.9213C37.1428 31.1857 37.6714 30.7516 38.4967 30.7516H40.2983V34.6728H39.5483V33.1587H38.5245C38.1725 33.1587 37.973 33.3114 37.973 33.6446V34.244C37.973 34.424 37.9388 34.566 37.8933 34.6728H37.1316C37.1776 34.5596 37.2225 34.3392 37.2225 34.1982V33.6504H37.222ZM39.5478 31.4457H38.4962C38.0464 31.4457 37.8928 31.6554 37.8928 31.9603C37.8928 32.2822 38.0693 32.4861 38.4786 32.4861H39.5478V31.4457Z" fill="#FC5E06"/>
<path d="M46.5674 30.7516H47.3174V33.9772H48.3979V30.7516H49.1484V33.9772H49.5469V35.3957H48.7959V34.6728H46.2266C45.2536 34.684 44.7144 34.085 44.7144 33.1246V30.7516H45.4648V33.1475C45.4648 33.7065 45.7264 33.9772 46.2266 33.9772H46.5679V30.7516H46.5674Z" fill="#FC5E06"/>
<path d="M56.7092 34.6728H53.7864V30.7516H56.6691V31.4462H54.5374V32.2827H56.3566V32.9783H54.5374V33.9777H56.7092V34.6728Z" fill="#FC5E06"/>
<path d="M63.8652 34.6728H60.9429V30.7516H63.8256V31.4462H61.6934V32.2827H63.5126V32.9783H61.6934V33.9777H63.8656V34.6728H63.8652Z" fill="#FC5E06"/>
<path d="M74.2988 31.4296V32.2934H75.4703C76.2208 32.2934 76.7097 32.7793 76.7097 33.4807C76.7097 34.1811 76.2213 34.6723 75.4703 34.6723H73.5483V30.7511H76.2834V31.4296H74.2988ZM75.3676 32.9778H74.2988V33.9894H75.3676C75.7485 33.9894 75.9416 33.8197 75.9416 33.4807C75.9421 33.1417 75.749 32.9778 75.3676 32.9778Z" fill="#FC5E06"/>
<path d="M82.2226 33.3397C81.3645 33.3397 80.7852 32.8139 80.7852 31.8076V30.7511H81.5347V31.8305C81.5347 32.4125 81.8021 32.6441 82.3023 32.6441C82.803 32.6441 83.0694 32.3671 83.0694 31.8305V30.7511H83.8263V33.1183C83.8263 34.1187 83.3432 34.7396 82.2852 34.7396C81.4951 34.7396 80.9265 34.2767 80.7783 33.689H81.6036C81.699 33.8928 81.9273 34.045 82.2857 34.045C82.7805 34.045 83.0699 33.7504 83.0699 33.1407V32.988C82.8993 33.1919 82.6201 33.3397 82.2226 33.3397Z" fill="#FC5E06"/>
<path d="M91.8461 33.9772V35.3957H91.0956V34.6728H88.5601V35.3957H87.8096V33.9772C88.1851 33.9382 88.4579 33.7572 88.5087 33.2656L88.7752 30.7516H91.4545V33.9772H91.8461ZM90.704 33.9772V31.4462H89.4636L89.2705 33.2714C89.2372 33.6002 89.1512 33.826 89.0319 33.9772H90.704Z" fill="#FC5E06"/>
<path d="M97.3317 33.3397C96.4732 33.3397 95.8938 32.8139 95.8938 31.8076V30.7511H96.6443V31.8305C96.6443 32.4125 96.9117 32.6441 97.4109 32.6441C97.9111 32.6441 98.1785 32.3671 98.1785 31.8305V30.7511H98.9349V33.1183C98.9349 34.1187 98.4518 34.7396 97.3948 34.7396C96.6042 34.7396 96.0361 34.2767 95.8879 33.689H96.7118C96.8091 33.8928 97.0364 34.045 97.3943 34.045C97.8891 34.045 98.1785 33.7504 98.1785 33.1407V32.988C98.0079 33.1919 97.7302 33.3397 97.3317 33.3397Z" fill="#FC5E06"/>
<path d="M105.17 30.7516H105.92V33.9772H107V30.7516H107.75V33.9772H108.148V35.3957H107.397V34.6728H104.827C103.856 34.684 103.316 34.085 103.316 33.1246V30.7516H104.067V33.1475C104.067 33.7065 104.328 33.9772 104.827 33.9772H105.17V30.7516H105.17Z" fill="#FC5E06"/>
<path d="M115.312 34.6728H112.391V30.7516H115.272V31.4462H113.14V32.2827H114.96V32.9783H113.14V33.9777H115.312V34.6728Z" fill="#FC5E06"/>
<path d="M122.468 34.6728H119.546V30.7516H122.428V31.4462H120.296V32.2827H122.115V32.9783H120.296V33.9777H122.468V34.6728Z" fill="#FC5E06"/>
</g>
<defs>
<radialGradient id="paint0_radial" cx="0" cy="0" r="1" gradientUnits="userSpaceOnUse" gradientTransform="translate(142.101 34.7526) scale(21.9011 2.24713)">
<stop stop-color="#9E9E9E"/>
<stop offset="1" stop-color="white" stop-opacity="0"/>
</radialGradient>
<clipPath id="clip0">
<rect width="164" height="37" fill="white"/>
</clipPath>
</defs>
</svg>
